<svg xmlns="http://www.w3.org/2000/svg" width="1400" height="850" viewBox="0 0 1400 850"><defs><marker id="arrow-0078d4" markerWidth="10" markerHeight="10" refX="9" refY="3" orient="auto"><path d="M0,0 L0,6 L9,3 z" fill="#0078d4"/></marker><marker id="arrow-dc2626" markerWidth="10" markerHeight="10" refX="9" refY="3" orient="auto"><path d="M0,0 L0,6 L9,3 z" fill="#dc2626"/></marker><marker id="arrow-d97706" markerWidth="10" markerHeight="10" refX="9" refY="3" orient="auto"><path d="M0,0 L0,6 L9,3 z" fill="#d97706"/></marker><filter id="shadow"><feDropShadow dx="0" dy="4" stdDeviation="6" flood-opacity=".12"/></filter></defs><rect width="1400" height="850" fill="#f8fafc"/><text x="40" y="48" fill="#172554" font-size="30" font-family="Inter,Segoe UI,sans-serif" font-weight="800">Azure Enterprise Landing Zone — Rev1</text><text x="40" y="77" fill="#475569" font-size="16" font-family="Inter,Segoe UI,sans-serif">Private workloads • Centralized egress • Firewall DNAT • Hub-and-spoke</text><g filter="url(#shadow)"><g><rect x="40" y="100" width="1320" height="680" rx="14" fill="#ffffff" stroke="#172554" stroke-width="2"/><text x="700" y="440" text-anchor="middle" dominant-baseline="middle" fill="#172554" font-size="16" font-family="Inter,Segoe UI,sans-serif" font-weight="600"><tspan x="700" dy="0">Azure Sandbox Subscription</tspan></text></g><g><rect x="80" y="155" width="480" height="555" rx="14" fill="#dbeafe" stroke="#172554" stroke-width="2"/><text x="320" y="432.5" text-anchor="middle" dominant-baseline="middle" fill="#172554" font-size="16" font-family="Inter,Segoe UI,sans-serif" font-weight="600"><tspan x="320" dy="0">Hub VNet  10.1.0.0/16</tspan></text></g><g><rect x="600" y="155" width="720" height="555" rx="14" fill="#dcfce7" stroke="#172554" stroke-width="2"/><text x="960" y="432.5" text-anchor="middle" dominant-baseline="middle" fill="#172554" font-size="16" font-family="Inter,Segoe UI,sans-serif" font-weight="600"><tspan x="960" dy="0">ERP Spoke VNet  10.2.0.0/16</tspan></text></g><g><rect x="110" y="225" width="420" height="175" rx="14" fill="#fee2e2" stroke="#172554" stroke-width="2"/><text x="320" y="312.5" text-anchor="middle" dominant-baseline="middle" fill="#172554" font-size="16" font-family="Inter,Segoe UI,sans-serif" font-weight="600"><tspan x="320" dy="-22">Azure Firewall Basic</tspan><tspan x="320" dy="23">Private IP  10.1.0.4</tspan><tspan x="320" dy="23">Ubuntu egress: HTTP 80 + HTTPS 443</tspan></text></g><g><rect x="110" y="435" width="195" height="120" rx="14" fill="#ffffff" stroke="#172554" stroke-width="2"/><text x="207.5" y="495" text-anchor="middle" dominant-baseline="middle" fill="#172554" font-size="16" font-family="Inter,Segoe UI,sans-serif" font-weight="600"><tspan x="207.5" dy="-11">Firewall Subnet</tspan><tspan x="207.5" dy="23">10.1.0.0/26</tspan></text></g><g><rect x="335" y="435" width="195" height="120" rx="14" fill="#ffffff" stroke="#172554" stroke-width="2"/><text x="432.5" y="495" text-anchor="middle" dominant-baseline="middle" fill="#172554" font-size="16" font-family="Inter,Segoe UI,sans-serif" font-weight="600"><tspan x="432.5" dy="-11">Management Subnet</tspan><tspan x="432.5" dy="23">10.1.1.0/26</tspan></text></g><g><rect x="110" y="585" width="420" height="90" rx="14" fill="#fef3c7" stroke="#172554" stroke-width="2"/><text x="320" y="630" text-anchor="middle" dominant-baseline="middle" fill="#172554" font-size="16" font-family="Inter,Segoe UI,sans-serif" font-weight="600"><tspan x="320" dy="-11">Log Analytics</tspan><tspan x="320" dy="23">Firewall diagnostics • 30-day retention</tspan></text></g><g><rect x="635" y="225" width="300" height="170" rx="14" fill="#ffffff" stroke="#172554" stroke-width="2"/><text x="785" y="310" text-anchor="middle" dominant-baseline="middle" fill="#172554" font-size="16" font-family="Inter,Segoe UI,sans-serif" font-weight="600"><tspan x="785" dy="-33">ERP Subnet  10.2.1.0/24</tspan><tspan x="785" dy="23"></tspan><tspan x="785" dy="23">ERP Test VM</tspan><tspan x="785" dy="23">10.2.1.10 • Private only</tspan></text></g><g><rect x="980" y="225" width="300" height="170" rx="14" fill="#ffffff" stroke="#172554" stroke-width="2"/><text x="1130" y="310" text-anchor="middle" dominant-baseline="middle" fill="#172554" font-size="16" font-family="Inter,Segoe UI,sans-serif" font-weight="600"><tspan x="1130" dy="-33">Web Subnet  10.2.2.0/24</tspan><tspan x="1130" dy="23"></tspan><tspan x="1130" dy="23">Nginx Web VM</tspan><tspan x="1130" dy="23">10.2.2.10 • Private only</tspan></text></g><g><rect x="635" y="445" width="645" height="95" rx="14" fill="#fef3c7" stroke="#172554" stroke-width="2"/><text x="957.5" y="492.5" text-anchor="middle" dominant-baseline="middle" fill="#172554" font-size="16" font-family="Inter,Segoe UI,sans-serif" font-weight="600"><tspan x="957.5" dy="-11">UDR on workload subnets</tspan><tspan x="957.5" dy="23">0.0.0.0/0  →  Virtual Appliance 10.1.0.4</tspan></text></g><g><rect x="635" y="585" width="300" height="90" rx="14" fill="#ffffff" stroke="#172554" stroke-width="2"/><text x="785" y="630" text-anchor="middle" dominant-baseline="middle" fill="#172554" font-size="16" font-family="Inter,Segoe UI,sans-serif" font-weight="600"><tspan x="785" dy="-11">NSGs</tspan><tspan x="785" dy="23">ERP isolation • Web TCP 80</tspan></text></g><g><rect x="980" y="585" width="300" height="90" rx="14" fill="#f3e8ff" stroke="#172554" stroke-width="2"/><text x="1130" y="630" text-anchor="middle" dominant-baseline="middle" fill="#172554" font-size="16" font-family="Inter,Segoe UI,sans-serif" font-weight="600"><tspan x="1130" dy="-11">Firewall DNAT</tspan><tspan x="1130" dy="23">Public IP:80 → 10.2.2.10:80</tspan></text></g><g><rect x="1050" y="30" width="270" height="70" rx="14" fill="#f3e8ff" stroke="#172554" stroke-width="2"/><text x="1185" y="65" text-anchor="middle" dominant-baseline="middle" fill="#172554" font-size="16" font-family="Inter,Segoe UI,sans-serif" font-weight="600"><tspan x="1185" dy="-11">Internet Client</tspan><tspan x="1185" dy="23">HTTP to Firewall Public IP</tspan></text></g></g><g><path d="M 1180 100 L 1180 225" stroke="#0078d4" stroke-width="3" fill="none" marker-end="url(#arrow-0078d4)"/><rect x="1108" y="149.5" width="144" height="26" rx="8" fill="#f8fafc" opacity=".94"/><text x="1180" y="167.5" text-anchor="middle" fill="#0078d4" font-size="12" font-family="Inter,Segoe UI,sans-serif" font-weight="700">1  HTTP :80</text></g><g><path d="M 980 630 L 530 315" stroke="#0078d4" stroke-width="3" fill="none" marker-end="url(#arrow-0078d4)"/><rect x="683" y="459.5" width="144" height="26" rx="8" fill="#f8fafc" opacity=".94"/><text x="755" y="477.5" text-anchor="middle" fill="#0078d4" font-size="12" font-family="Inter,Segoe UI,sans-serif" font-weight="700">2  DNAT + peering</text></g><g><path d="M 980 480 L 530 330" stroke="#dc2626" stroke-width="3" fill="none" marker-end="url(#arrow-dc2626)"/><rect x="683" y="392" width="144" height="26" rx="8" fill="#f8fafc" opacity=".94"/><text x="755" y="410" text-anchor="middle" fill="#dc2626" font-size="12" font-family="Inter,Segoe UI,sans-serif" font-weight="700">3  Forced egress</text></g><g><path d="M 320 400 L 320 585" stroke="#d97706" stroke-width="3" fill="none" marker-end="url(#arrow-d97706)"/><rect x="248" y="479.5" width="144" height="26" rx="8" fill="#f8fafc" opacity=".94"/><text x="320" y="497.5" text-anchor="middle" fill="#d97706" font-size="12" font-family="Inter,Segoe UI,sans-serif" font-weight="700">4  Diagnostics</text></g><g><path d="M 560 330 L 635 330" stroke="#0078d4" stroke-width="3" fill="none" marker-end="url(#arrow-0078d4)"/><rect x="525.5" y="317" width="144" height="26" rx="8" fill="#f8fafc" opacity=".94"/><text x="597.5" y="335" text-anchor="middle" fill="#0078d4" font-size="12" font-family="Inter,Segoe UI,sans-serif" font-weight="700">Bidirectional peering</text></g><g transform="translate(40 815)"><circle cx="8" cy="0" r="7" fill="#f3e8ff" stroke="#172554"/><text x="22" y="5" fill="#475569" font-size="13" font-family="Inter,Segoe UI,sans-serif">Public ingress</text><circle cx="323" cy="0" r="7" fill="#fee2e2" stroke="#172554"/><text x="337" y="5" fill="#475569" font-size="13" font-family="Inter,Segoe UI,sans-serif">Security boundary</text><circle cx="638" cy="0" r="7" fill="#dcfce7" stroke="#172554"/><text x="652" y="5" fill="#475569" font-size="13" font-family="Inter,Segoe UI,sans-serif">Private workloads</text><circle cx="953" cy="0" r="7" fill="#fef3c7" stroke="#172554"/><text x="967" y="5" fill="#475569" font-size="13" font-family="Inter,Segoe UI,sans-serif">Governance / routing</text></g></svg>